<svg width="33" height="29" viewBox="0 0 33 29" fill="none" xmlns="http://www.w3.org/2000/svg">
<path d="M21.3125 16.9166H20.2263L19.8413 16.5904C20.7006 15.7131 21.3286 14.6797 21.6804 13.5643C22.0322 12.4488 22.0991 11.2787 21.8763 10.1379C21.23 6.77872 18.04 4.09622 14.19 3.68539C12.8365 3.53491 11.4617 3.65853 10.1709 4.04679C8.88014 4.43504 7.70751 5.07765 6.74279 5.92543C5.77808 6.77321 5.04684 7.8037 4.60502 8.93804C4.16321 10.0724 4.02254 11.2805 4.19378 12.47C4.66128 15.8533 7.71378 18.6566 11.5363 19.2246C12.8345 19.4204 14.1659 19.3616 15.4352 19.0524C16.7046 18.7433 17.8805 18.1914 18.8788 17.4362L19.25 17.7746V18.7291L25.0938 23.8646C25.6575 24.36 26.5788 24.36 27.1425 23.8646C27.7063 23.3691 27.7063 22.5596 27.1425 22.0641L21.3125 16.9166ZM13.0625 16.9166C9.63878 16.9166 6.87503 14.4879 6.87503 11.4791C6.87503 8.47039 9.63878 6.04164 13.0625 6.04164C16.4863 6.04164 19.25 8.47039 19.25 11.4791C19.25 14.4879 16.4863 16.9166 13.0625 16.9166Z" fill="black"/>
</svg>
